<svg width="1200" height="780" viewBox="0 0 1200 780" fill="none" xmlns="http://www.w3.org/2000/svg">
  <rect width="1200" height="780" rx="56" fill="#111116"/>
  <circle cx="300" cy="210" r="280" fill="#8B5CF6" fill-opacity=".32"/>
  <circle cx="930" cy="585" r="280" fill="#F472B6" fill-opacity=".28"/>
  <g transform="translate(160 130)">
    <rect width="880" height="510" rx="40" fill="white" fill-opacity=".12" stroke="white" stroke-opacity=".34"/>
    <path d="M110 390C200 250 300 250 390 390S580 530 740 200" stroke="#36C5F0" stroke-width="20" stroke-linecap="round"/>
    <circle cx="110" cy="390" r="36" fill="#36C5F0"/>
    <circle cx="390" cy="390" r="36" fill="#F472B6"/>
    <circle cx="740" cy="200" r="36" fill="#8B5CF6"/>
    <rect x="88" y="76" width="250" height="52" rx="18" fill="white" fill-opacity=".84"/>
    <rect x="88" y="154" width="450" height="22" rx="11" fill="white" fill-opacity=".24"/>
    <rect x="88" y="198" width="330" height="22" rx="11" fill="white" fill-opacity=".18"/>
    <rect x="610" y="72" width="170" height="64" rx="20" fill="#F472B6" fill-opacity=".3" stroke="#F472B6"/>
    <rect x="610" y="158" width="210" height="64" rx="20" fill="#36C5F0" fill-opacity=".24" stroke="#36C5F0"/>
  </g>
</svg>
