<svg width="1200" height="780" viewBox="0 0 1200 780" fill="none" xmlns="http://www.w3.org/2000/svg">
  <rect width="1200" height="780" rx="56" fill="#10131D"/>
  <circle cx="220" cy="210" r="280" fill="#36C5F0" fill-opacity=".22"/>
  <circle cx="920" cy="560" r="310" fill="#F472B6" fill-opacity=".24"/>
  <g transform="translate(158 132)">
    <rect width="884" height="516" rx="42" fill="white" fill-opacity=".12" stroke="white" stroke-opacity=".32"/>
    <rect x="62" y="62" width="210" height="392" rx="30" fill="white" fill-opacity=".83"/>
    <path d="M342 398c60-118 118-150 176-96 68 64 140 48 216-144" stroke="#36C5F0" stroke-width="18" stroke-linecap="round"/>
    <rect x="334" y="70" width="440" height="64" rx="20" fill="#F472B6" fill-opacity=".24" stroke="#F472B6"/>
    <rect x="334" y="170" width="166" height="112" rx="26" fill="#8B5CF6" fill-opacity=".22"/>
    <rect x="534" y="170" width="166" height="112" rx="26" fill="#36C5F0" fill-opacity=".22"/>
    <path d="M108 150h116M108 216h82M108 282h128M108 348h94" stroke="#111116" stroke-opacity=".36" stroke-width="18" stroke-linecap="round"/>
  </g>
</svg>
