<svg width="1200" height="780" viewBox="0 0 1200 780" fill="none" xmlns="http://www.w3.org/2000/svg">
  <rect width="1200" height="780" rx="56" fill="#10131D"/>
  <circle cx="1020" cy="170" r="280" fill="#36C5F0" fill-opacity=".28"/>
  <circle cx="210" cy="590" r="260" fill="#F472B6" fill-opacity=".3"/>
  <g transform="translate(205 105)">
    <rect x="190" y="0" width="420" height="550" rx="34" fill="#FBF9FF" stroke="white" stroke-opacity=".5"/>
    <rect x="240" y="72" width="220" height="30" rx="15" fill="#15121F" fill-opacity=".86"/>
    <rect x="240" y="132" width="320" height="20" rx="10" fill="#8B5CF6" fill-opacity=".3"/>
    <rect x="240" y="174" width="260" height="20" rx="10" fill="#15121F" fill-opacity=".14"/>
    <rect x="240" y="216" width="310" height="20" rx="10" fill="#15121F" fill-opacity=".14"/>
    <rect x="240" y="294" width="130" height="130" rx="30" fill="#36C5F0" fill-opacity=".24"/>
    <rect x="404" y="294" width="130" height="130" rx="30" fill="#F472B6" fill-opacity=".24"/>
    <path d="M88 154h196M88 232h140M88 310h194M88 388h158" stroke="white" stroke-opacity=".78" stroke-width="18" stroke-linecap="round"/>
    <path d="M622 156h184M622 234h130M622 312h190M622 390h142" stroke="white" stroke-opacity=".78" stroke-width="18" stroke-linecap="round"/>
    <path d="M120 154c115 34 205 76 270 126M780 156c-114 34-205 76-270 126" stroke="#36C5F0" stroke-width="8" stroke-linecap="round" stroke-dasharray="10 20"/>
  </g>
</svg>
